ply
format ascii 1.0
element vertex 386
property float x
property float y
property float z
element face 768
property list uchar int vertex_indices
end_header
-59.1497 69.5657 -44.2858
-57.331 64.8759 -47.0749
-53.5723 61.3532 -36.9441
1.71484 59.0921 -41.0976
14.0551 56.1908 33.5219
-2.40173 6.11046 16.5119
18.4898 32.5652 10.3276
-52.1929 74.2334 -29.5612
-19.5275 61.6998 30.0214
-53.7452 72.0167 -42.7005
23.4778 69.0259 0.6673
55.2173 68.2793 -30.0398
54.1282 79.4532 -32.7631
-4.05321 56.2189 -32.4929
-48.7101 68.894 -32.1209
4.44242 64.5375 -35.3335
-59.5521 60.113 -31.8598
-2.85659 66.2114 -35.2395
56.8426 80.7177 -30.9659
-9.91563 62.9668 -26.4644
14.19 -26.7733 18.4608
-13.6443 89.9387 -27.6695
25.8286 54.9508 17.8609
5.5298 58.5961 -29.8569
-12.9509 77.6843 -21.3483
8.19653 74.3283 -26.5542
17.4261 39.6628 25.1734
-42.4318 65.1354 -22.4315
-6.31944 78.5203 -27.4791
-59.2636 72.8904 -35.2334
16.731 91.7665 -25.503
11.3637 84.3269 -26.6977
11.4437 79.6283 -17.9719
-30.7318 -49.2323 22.411
30.1308 -29.4221 11.9831
17.2765 -41.4081 16.5806
-57.9148 67.9334 -17.5322
15.7875 90.3936 -21.9521
5.58164 85.0198 -19.7538
23.2223 -10.3315 19.6147
-14.2048 90.1945 -23.2672
60.7623 68.7842 -22.357
5.78876 85.1388 -7.53175
-27.7361 -29.5496 21.0729
49.5229 78.3995 -24.0534
2.04461 47.7664 35.8817
51.2817 54.3072 -18.3129
-4.84358 -4.87204 48.738
-12.7858 51.5503 -12.955
-2.68233 66.9716 37.0318
9.62174 -0.830891 13.706
0.39041 -2.95204 38.7484
-6.70171 86.1959 -18.5223
-43.2502 53.0292 -20.2052
3.93368 85.0132 21.1897
-40.3135 65.7874 -12.9063
-23.1114 4.99755 24.634
-28.3592 45.8159 8.13605
52.4809 75.3771 -15.6925
-6.81583 86.6965 -1.28184
-4.61035 55.5214 -17.8802
-8.95858 11.2505 26.897
-32.1891 8.44976 19.4271
0.325523 43.0307 -11.5802
42.644 54.3748 -14.8051
16.7385 18.9907 22.3997
12.3341 62.525 -12.5849
-23.3305 62.5681 -11.3058
32.7323 -52.1929 11.9684
-35.4873 -51.3835 5.53435
-26.4868 50.0636 -8.53147
-13.7206 79.8097 22.7389
-41.4694 48.8678 -6.17499
-15.8886 41.7333 30.133
16.5773 71.8977 27.5286
6.46616 25.3849 -3.73749
-25.2074 -42.6204 15.6521
-41.4943 -47.3251 2.78179
-39.6264 -20.7445 15.9223
-50.701 54.6358 -9.52696
56.6389 67.0982 -7.37085
38.0721 63.2225 -8.729
-30.5121 67.1908 1.93174
-43.4386 64.4097 -2.12966
22.1443 -33.2167 27.9014
-37.765 -15.2471 0.719554
19.9998 5.54387 -0.0535746
-39.4888 54.4499 5.96576
-14.4285 32.6133 -3.37103
53.2039 54.493 -7.79379
18.7055 -50.9726 13.3308
32.2446 -48.2021 9.80784
-11.2447 10.8764 0.9479
-39.9975 -42.5268 16.1584
-1.35983 29.5735 32.4962
31.0214 -21.4279 18.9147
-3.81773 -3.67369 50.1499
29.4662 -16.0603 1.86822
-28.8133 67.03 12.705
-19.1267 22.5422 23.6154
1.15689 11.7821 30.843
27.3923 12.833 10.2258
-30.4639 0.970727 -1.49048
-20.1549 34.6634 16.749
-23.9031 18.9977 7.91836
44.5079 61.4135 0.558622
22.8582 -46.136 9.03831
-27.3366 -25.7018 3.41502
21.8683 -28.1654 6.91397
1.91363 8.01736 2.07814
8.49222 5.04227 24.7299
28.2461 -51.143 4.91929
-27.4452 -11.5282 1.0983
32.7683 -7.16938 7.23026
-22.4531 -19.7962 10.8397
-44.8573 -51.7621 10.6072
-4.57446 1.67415 32.5993
18.7082 -13.9041 5.64496
-1.34367 -4.0217 49.0183
-15.8682 -4.41091 15.9969
-38.6197 -0.547566 6.65352
41.3003 49.9757 2.0704
-18.6893 76.0259 -5.14688
-30.399 -10.8991 17.1765
17.0266 -42.4429 26.0937
26.7641 -46.178 22.4587
24.6085 45.7426 -2.87558
14.6945 81.5865 11.9159
-46.5605 -48.8211 6.79928
-35.1479 -38.8359 7.2588
19.7307 -48.2238 22.2349
-3.50065 -5.35786 53.8401
-56.805 69.4753 -47.9004
-57.6566 60.9686 -40.6733
-59.6651 64.6458 -43.8411
6.77191 83.4244 -14.7233
-57.6986 73.0203 -42.3374
-55.3834 74.8264 -37.0337
-54.7965 65.7982 -44.7326
1.47592 62.9184 -39.7213
-5.3186 -2.71299 46.218
-1.97865 59.292 -38.879
3.79333 4.49202 31.1954
4.65604 59.985 -37.6007
20.1423 61.0681 27.9456
-60.5587 68.1907 -38.2782
-51.8894 68.165 -38.1552
-6.09248 60.927 -32.6716
53.5775 82.4738 -31.3095
11.9563 29.777 27.1385
5.28769 3.80267 18.8008
30.3136 -2.02185 12.4276
55.9949 77.5842 -34.0535
-31.3765 -46.5564 8.66323
-51.5827 73.6482 -36.0192
17.9624 -17.2527 14.4306
-52.9102 56.443 -30.0107
22.1138 -49.9569 6.68705
-43.8431 62.0808 -24.8607
38.1765 54.5769 8.36953
20.5309 70.4247 20.3708
-48.721 60.6302 -30.2525
30.4813 -32.9006 19.1427
1.20148 56.3586 -36.7584
-2.17155 -6.00999 48.1677
18.2836 30.4631 18.9006
-3.9895 -3.36513 40.5456
-0.329762 72.7936 -30.6981
-47.1255 70.6949 -28.229
-8.60276 68.7915 -28.6496
-7.81646 73.6164 -28.7206
15.2883 92.1643 -23.061
-12.3976 30.9032 29.8797
21.8516 -42.4211 28.4032
21.0793 42.0689 17.9846
-3.12671 -2.87666 46.786
6.97947 65.7239 -30.9019
14.216 86.6244 -25.3034
8.47405 81.6414 -25.0393
12.2245 88.7396 -25.5152
53.1523 77.052 -30.9312
3.79935 68.6573 -33.0225
-26.0679 -19.7644 16.5699
2.16852 79.1962 -24.5905
16.522 -34.7918 26.365
-9.7223 86.1713 -26.3513
-23.5659 -30.9968 16.7438
-60.875 67.5211 -28.0862
-39.0239 -49.4061 18.7088
-1.1635 55.3902 -26.7893
5.66786 21.1091 28.9163
5.11045 58.5378 -19.6474
-12.104 83.2007 -26.9462
-13.0549 92.077 -24.4123
20.2593 49.896 26.624
-6.66466 57.3633 -25.9824
9.38332 12.9341 25.659
10.4656 79.5262 -24.8275
-52.1055 54.1813 -20.4472
-44.026 68.974 -21.4334
-9.94611 21.5972 28.4545
-18.7662 77.7959 1.40699
33.773 -51.0427 7.22828
-37.3839 -52.9632 13.263
1.50448 0.540474 31.4838
-58.129 73.43 -27.611
16.0748 -46.0152 19.507
9.79886 65.245 -22.9177
-12.583 80.252 -14.8289
-3.14717 18.4295 30.5783
53.2913 81.092 -24.5338
27.2224 -34.4794 25.518
-5.83717 52.0647 36.4325
-21.6356 40.3964 19.6661
49.0587 56.4807 -21.7552
-15.4366 89.1064 -25.0071
56.4187 62.2021 -24.6249
-21.0149 26.505 16.6039
58.0804 77.0205 -24.5771
-15.5881 67.7617 -19.8142
-37.6124 49.7269 -12.2771
1.29338 86.0739 -15.0515
13.5032 81.7591 21.0381
-58.0194 60.3197 -18.9273
11.1085 72.4658 -18.719
7.14676 76.5476 30.0891
-12.7898 60.2317 -18.5213
4.44793 57.5431 37.7073
46.427 74.027 -16.146
-40.7435 60.3599 -18.0651
-12.1378 86.459 -20.7904
11.9114 86.2101 -19.6846
-38.9209 -43.374 8.08131
22.8741 43.6228 8.76704
12.6458 49.7826 -9.11963
-17.4717 45.2219 -9.15896
2.70396 53.4573 -13.6933
-21.0932 37.7004 7.59642
15.9349 70.6921 -9.25851
42.729 65.8189 -16.1449
-9.04423 42.1964 -10.5017
17.056 -22.5755 8.9279
-17.351 13.1165 25.8628
31.6321 -22.1705 10.5176
-35.5572 59.8082 -14.5541
10.0644 37.2989 -7.0384
-13.542 57.0903 -13.9049
58.3433 71.9593 -14.7504
-4.55176 8.8301 29.3288
-22.5555 70.1133 23.1897
10.3973 65.7123 34.7
14.6379 -36.989 21.6666
-51.2287 70.531 -19.801
28.5168 -48.0029 5.44456
17.123 4.64016 22.5881
-46.2034 50.5249 -12.1985
-23.2688 -4.30993 20.23
-5.78296 50.1062 -14.6656
-39.08 -34.2908 14.2894
-23.5062 -29.9317 9.70357
-15.8381 3.54989 23.6907
19.2194 -24.1448 23.4713
33.2884 -49.7433 15.2855
-1.81198 2.85715 37.9998
-20.6236 55.6657 -11.1766
-29.1305 -50.4243 15.4719
-31.0109 54.7079 -13.2837
-18.5797 72.2853 -11.9847
59.0079 63.6926 -11.8392
48.433 51.5188 -13.2746
6.57409 39.3917 32.1124
-10.5934 83.9648 -9.37359
17.0042 -9.14695 13.2066
45.1432 67.0405 -7.58857
-3.13864 33.0637 -7.44824
28.0322 -46.7035 13.5018
-26.064 12.3167 23.8602
34.6877 53.1274 -9.1275
-48.237 66.7839 -10.3454
47.6927 53.9766 -0.567757
26.1455 -22.1278 24.0427
-4.35128 79.8908 28.6223
-52.2817 62.4816 -8.99647
-32.9116 -20.0197 19.3139
-44.1158 -46.6737 6.91694
-5.5718 6.66522 24.9056
32.9403 -14.7616 8.46127
-18.48 32.9004 24.6702
20.8147 59.1663 -4.31502
46.4055 51.1702 -6.29867
13.2162 78.3915 -7.9515
-23.0668 42.5271 -1.57263
52.2704 69.0443 -6.14973
31.845 61.8236 7.62824
49.1681 67.4621 -24.1544
-25.9719 17.4367 17.5123
28.7903 58.8371 -3.3201
-24.2398 68.6816 -3.35232
-1.42811 14.7858 -1.62584
16.0201 34.1866 0.445025
31.419 48.872 6.82951
-22.8911 55.6126 25.7772
-34.8546 66.7235 5.3511
-31.1274 65.2303 -5.9622
21.8659 -45.052 16.2142
-32.8202 47.99 -2.58362
-26.416 70.4793 4.584
-6.35622 22.9996 -3.22226
-46.6734 -50.1353 4.71052
36.5725 48.3303 -5.01793
26.9015 -35.518 13.6316
17.951 24.0838 5.19448
23.2546 -7.78818 0.324368
-33.4431 -8.92339 -1.7475
-37.3942 -4.43404 0.0259204
29.0787 -5.69244 0.933472
-13.7881 55.6907 34.6793
21.7584 -39.294 15.3084
-9.0886 4.22337 11.1244
52.9351 60.7776 -3.23848
-37.3047 48.9024 3.37154
4.70093 86.471 0.324194
16.4288 -31.6647 13.2702
26.8853 -51.6973 16.528
-22.3388 -12.2289 14.6728
-37.2808 -46.9311 2.6355
8.85369 13.4736 -2.25863
-2.58571 87.3504 -10.3074
-31.5863 -17.6598 -0.0147949
15.0243 80.1617 2.35192
2.2648 4.10262 10.7114
-35.6262 -0.796974 14.5568
55.793 57.2402 -16.1444
30.7126 -13.14 15.611
-41.6838 -51.2897 3.97387
23.5364 -19.4748 2.34101
-21.7918 10.9415 1.27015
-32.8793 55.681 10.3012
59.3708 73.7156 -30.1464
-2.93645 82.9896 -22.0182
12.0813 47.9049 32.5139
-40.7848 -11.308 7.3307
-44.8813 51.5085 -2.26261
-45.0456 57.3267 -0.580525
-37.9622 62.285 6.69512
22.0093 21.9142 14.4326
-3.99425 8.39518 5.6117
28.0523 -24.788 5.00648
-23.6526 -0.13065 -1.36129
-16.0994 21.0611 1.03681
-37.8932 66.0676 -3.27349
-32.0704 7.26381 2.96786
22.0157 69.4146 11.4482
0.49123 0.422754 40.8252
-17.4938 79.9557 10.9852
35.5478 64.542 -1.78008
-36.1054 -30.3294 19.4852
-19.3357 29.324 7.32265
-33.5182 -26.7709 2.42362
-37.9054 -10.3807 13.4531
-13.4525 70.1913 32.0917
29.1254 4.34199 4.9083
17.9732 -46.4489 12.0164
0.470076 4.76154 23.9468
27.37 -52.9967 8.47078
-28.1368 -37.0759 8.71988
-5.37657 39.4064 34.5547
19.0596 15.8197 1.30424
-25.1169 50.9794 17.8513
4.66458 87.0584 10.0878
-25.4246 -19.0009 3.71781
-18.1264 -2.39661 5.5145
9.83636 4.33742 4.54444
-31.6463 -41.0861 22.5662
-38.7656 -24.9085 7.9957
14.0474 -2.32637 20.1531
-5.67357 86.724 13.8002
-8.569 4.21777 20.3212
15.816 -2.78311 5.68734
-29.9064 0.665766 21.7628
-46.4648 -48.8379 10.7357
-33.1818 9.97356 11.3764
-25.9506 -42.0088 22.5688
-21.7552 -12.5305 8.86091
24.306 7.28625 18.0616
17.2798 90.0492 -22.8492
3 130 125 173
3 131 47 164
3 132 1 134
3 133 16 134
3 134 16 145
3 135 38 221
3 136 0 145
3 137 29 205
3 138 1 132
3 139 3 141
3 140 47 131
3 141 17 139
3 142 110 196
3 143 23 163
3 144 74 250
3 145 0 134
3 146 9 154
3 147 13 195
3 148 44 210
3 149 26 270
3 150 50 375
3 151 101 384
3 152 12 148
3 153 129 365
3 154 7 168
3 155 20 261
3 156 53 198
3 157 111 364
3 158 27 229
3 159 105 293
3 160 127 222
3 161 14 158
3 162 34 243
3 163 23 189
3 164 118 131
3 165 26 149
3 166 51 164
3 167 17 170
3 168 14 154
3 169 17 147
3 170 17 169
3 171 38 231
3 172 99 200
3 173 124 130
3 174 22 194
3 175 118 263
3 176 25 207
3 177 32 197
3 178 25 183
3 179 30 177
3 180 12 152
3 181 15 139
3 182 114 324
3 183 28 339
3 184 84 261
3 185 21 193
3 186 76 259
3 187 29 145
3 188 115 203
3 189 60 195
3 190 94 209
3 191 60 189
3 192 28 170
3 193 40 230
3 194 26 174
3 195 13 189
3 196 110 254
3 197 32 224
3 198 16 156
3 199 55 229
3 200 61 209
3 201 98 354
3 202 68 364
3 203 33 188
3 204 110 142
3 205 7 137
3 206 35 362
3 207 66 191
3 208 52 230
3 209 61 248
3 210 58 218
3 211 84 173
3 212 73 366
3 213 73 368
3 214 46 269
3 215 24 230
3 216 46 214
3 217 99 287
3 218 58 247
3 219 67 267
3 220 53 266
3 221 52 327
3 222 74 160
3 223 79 282
3 224 32 238
3 225 54 281
3 226 67 219
3 227 49 212
3 228 44 239
3 229 55 244
3 230 52 193
3 231 38 135
3 232 93 258
3 233 6 299
3 234 66 288
3 235 70 264
3 236 66 234
3 237 103 213
3 238 10 288
3 239 81 228
3 240 88 235
3 241 108 322
3 242 56 260
3 243 97 286
3 244 67 266
3 245 75 274
3 246 60 257
3 247 80 268
3 248 116 263
3 249 8 360
3 250 49 227
3 251 124 184
3 252 7 205
3 253 91 202
3 254 65 196
3 255 79 198
3 256 119 260
3 257 48 246
3 258 129 232
3 259 76 365
3 260 61 242
3 261 84 280
3 262 68 202
3 263 118 353
3 264 67 246
3 265 76 382
3 266 67 264
3 267 67 297
3 268 41 247
3 269 89 289
3 270 26 340
3 271 122 201
3 272 50 378
3 273 105 292
3 274 88 240
3 275 91 253
3 276 99 295
3 277 64 309
3 278 36 282
3 279 121 289
3 280 84 211
3 281 71 360
3 282 36 223
3 283 78 356
3 284 77 308
3 285 5 363
3 286 95 243
3 287 73 213
3 288 10 296
3 289 121 309
3 290 10 238
3 291 57 305
3 292 58 273
3 293 105 355
3 294 64 239
3 295 62 276
3 296 126 288
3 297 122 267
3 298 92 307
3 299 75 245
3 300 126 309
3 301 73 316
3 302 82 350
3 303 55 350
3 304 125 275
3 305 57 320
3 306 122 297
3 307 75 298
3 308 128 284
3 309 121 300
3 310 108 347
3 311 75 299
3 312 97 335
3 313 112 328
3 314 85 341
3 315 86 361
3 316 8 301
3 317 125 304
3 318 5 377
3 319 105 279
3 320 57 337
3 321 59 369
3 322 108 317
3 323 90 364
3 324 119 256
3 325 69 334
3 326 86 372
3 327 42 221
3 328 112 370
3 329 42 321
3 330 50 150
3 331 123 379
3 332 89 269
3 333 113 151
3 334 77 325
3 335 108 241
3 336 102 351
3 337 87 320
3 338 11 152
3 339 38 183
3 340 45 270
3 341 78 359
3 342 87 343
3 343 87 344
3 344 87 337
3 345 65 384
3 346 92 298
3 347 34 310
3 348 92 371
3 349 104 357
3 350 55 278
3 351 120 381
3 352 22 293
3 353 51 142
3 354 59 201
3 355 10 293
3 356 78 258
3 357 88 349
3 358 107 365
3 359 123 331
3 360 49 281
3 361 86 367
3 362 106 157
3 363 116 285
3 364 90 157
3 365 76 153
3 366 73 172
3 367 86 326
3 368 98 337
3 369 127 321
3 370 107 328
3 371 119 383
3 372 86 378
3 373 93 188
3 374 129 258
3 375 50 272
3 376 71 281
3 377 5 285
3 378 117 272
3 379 123 256
3 380 115 188
3 381 120 331
3 382 33 265
3 383 119 324
3 384 65 254
3 385 30 171
3 130 124 206
3 130 90 323
3 131 118 175
3 131 96 140
3 132 0 136
3 132 9 138
3 133 1 138
3 133 2 156
3 134 0 132
3 134 1 133
3 135 42 290
3 135 32 231
3 136 29 137
3 136 9 132
3 137 7 154
3 137 9 136
3 138 9 146
3 138 2 133
3 139 17 181
3 139 15 143
3 140 96 175
3 140 116 166
3 141 3 163
3 141 13 147
3 142 100 353
3 142 51 204
3 143 3 139
3 143 15 176
3 144 4 194
3 144 22 160
3 145 16 187
3 145 29 136
3 146 14 161
3 146 2 138
3 147 19 169
3 147 17 141
3 148 18 152
3 148 12 180
3 149 94 190
3 149 65 165
3 150 110 363
3 150 5 330
3 151 39 333
3 151 113 361
3 152 18 338
3 152 11 180
3 153 76 265
3 153 69 325
3 154 14 146
3 154 9 137
3 155 39 272
3 155 117 241
3 156 16 133
3 156 2 161
3 157 90 362
3 157 106 253
3 158 53 161
3 158 14 168
3 159 22 300
3 159 121 279
3 160 74 144
3 160 22 352
3 161 53 156
3 161 2 146
3 162 95 211
3 162 125 310
3 163 13 141
3 163 3 143
3 164 47 166
3 164 51 353
3 165 65 345
3 165 6 174
3 166 47 140
3 166 116 204
3 167 28 183
3 167 25 181
3 168 7 199
3 168 27 158
3 169 19 219
3 169 24 170
3 170 24 192
3 170 28 167
3 171 37 385
3 171 30 179
3 172 94 366
3 172 73 287
3 173 125 211
3 173 84 184
3 174 26 165
3 174 6 233
3 175 116 140
3 175 96 131
3 176 23 143
3 176 15 181
3 177 31 179
3 177 30 385
3 178 38 179
3 178 31 197
3 179 31 178
3 179 38 171
3 180 11 294
3 180 44 148
3 181 17 167
3 181 25 176
3 182 123 283
3 182 43 186
3 183 38 178
3 183 25 167
3 184 20 251
3 184 124 173
3 185 52 339
3 185 28 192
3 186 114 182
3 186 43 382
3 187 16 223
3 187 36 205
3 188 33 373
3 188 93 380
3 189 13 163
3 189 23 191
3 190 100 196
3 190 65 149
3 191 23 207
3 191 66 236
3 192 24 215
3 192 21 185
3 193 52 185
3 193 21 215
3 194 22 144
3 194 4 340
3 195 60 226
3 195 19 147
3 196 65 190
3 196 100 142
3 197 25 178
3 197 31 177
3 198 53 255
3 198 79 223
3 199 27 168
3 199 7 252
3 200 94 172
3 200 99 242
3 201 59 271
3 201 122 306
3 202 111 253
3 202 91 262
3 203 115 334
3 203 69 265
3 204 51 166
3 204 116 363
3 205 29 187
3 205 36 252
3 206 90 130
3 206 124 251
3 207 23 176
3 207 25 224
3 208 24 267
3 208 122 271
3 209 100 190
3 209 94 200
3 210 18 148
3 210 44 228
3 211 125 162
3 211 95 280
3 212 45 227
3 212 49 316
3 213 57 237
3 213 103 287
3 214 64 294
3 214 11 216
3 215 40 193
3 215 21 192
3 216 11 338
3 216 41 332
3 217 103 357
3 217 104 295
3 218 41 338
3 218 18 210
3 219 24 169
3 219 19 226
3 220 70 305
3 220 72 255
3 221 42 135
3 221 38 339
3 222 127 369
3 222 54 225
3 223 36 187
3 223 16 198
3 224 66 207
3 224 25 197
3 225 49 250
3 225 74 222
3 226 19 195
3 226 60 246
3 227 45 340
3 227 4 250
3 228 81 273
3 228 58 210
3 229 53 158
3 229 27 199
3 230 40 215
3 230 24 208
3 231 32 385
3 231 37 171
3 232 129 325
3 232 77 284
3 233 126 300
3 233 22 174
3 234 126 245
3 234 63 236
3 235 48 240
3 235 88 291
3 236 63 257
3 236 60 191
3 237 57 291
3 237 88 357
3 238 66 224
3 238 32 290
3 239 44 294
3 239 64 277
3 240 48 257
3 240 63 274
3 241 20 155
3 241 117 335
3 242 61 200
3 242 99 276
3 243 95 162
3 243 34 347
3 244 53 229
3 244 55 303
3 245 63 234
3 245 126 299
3 246 48 264
3 246 67 226
3 247 41 218
3 247 58 292
3 248 100 209
3 248 61 285
3 249 71 354
3 249 98 301
3 250 4 144
3 250 74 225
3 251 20 322
3 251 35 206
3 252 36 278
3 252 55 199
3 253 111 157
3 253 106 275
3 254 110 375
3 254 39 384
3 255 53 220
3 255 72 342
3 256 56 379
3 256 123 324
3 257 60 236
3 257 63 240
3 258 93 356
3 258 78 374
3 259 107 370
3 259 114 186
3 260 56 256
3 260 119 377
3 261 39 155
3 261 20 184
3 262 91 275
3 262 125 323
3 263 100 248
3 263 116 175
3 264 48 235
3 264 70 266
3 265 33 203
3 265 69 153
3 266 70 220
3 266 53 244
3 267 122 208
3 267 24 219
3 268 80 319
3 268 89 332
3 269 64 214
3 269 46 332
3 270 45 366
3 270 94 149
3 271 59 327
3 271 52 208
3 272 117 155
3 272 39 375
3 273 58 228
3 273 81 355
3 274 63 245
3 274 75 307
3 275 106 304
3 275 125 262
3 276 62 379
3 276 56 242
3 277 126 296
3 277 81 239
3 278 83 350
3 278 55 252
3 279 89 319
3 279 105 159
3 280 95 333
3 280 39 261
3 281 49 225
3 281 54 376
3 282 79 343
3 282 83 278
3 283 43 182
3 283 123 359
3 284 128 380
3 284 93 232
3 285 116 248
3 285 61 377
3 286 97 315
3 286 113 333
3 287 103 217
3 287 99 172
3 288 126 234
3 288 66 238
3 289 64 269
3 289 89 279
3 290 32 135
3 290 42 329
3 291 70 235
3 291 88 237
3 292 105 319
3 292 80 247
3 293 10 352
3 293 22 159
3 294 44 180
3 294 11 214
3 295 99 217
3 295 104 381
3 296 10 355
3 296 81 277
3 297 67 303
3 297 82 306
3 298 75 326
3 298 109 346
3 299 126 233
3 299 6 311
3 300 121 159
3 300 22 233
3 301 8 249
3 301 98 368
3 302 83 344
3 302 98 306
3 303 82 297
3 303 67 244
3 304 106 362
3 304 35 317
3 305 72 220
3 305 70 291
3 306 82 302
3 306 98 201
3 307 92 349
3 307 88 274
3 308 77 334
3 308 115 380
3 309 126 277
3 309 64 289
3 310 34 162
3 310 125 317
3 311 6 345
3 311 101 367
3 312 117 378
3 312 86 315
3 313 85 314
3 313 102 348
3 314 120 351
3 314 102 313
3 315 113 286
3 315 97 312
3 316 73 212
3 316 49 360
3 317 35 322
3 317 108 310
3 318 119 371
3 318 92 346
3 319 89 268
3 319 80 292
3 320 87 342
3 320 72 305
3 321 127 329
3 321 42 327
3 322 35 251
3 322 20 241
3 323 68 262
3 323 125 130
3 324 123 182
3 324 114 383
3 325 77 232
3 325 129 153
3 326 109 298
3 326 75 367
3 327 52 271
3 327 59 321
3 328 107 358
3 328 85 313
3 329 127 352
3 329 10 290
3 330 5 346
3 330 109 372
3 331 62 381
3 331 120 359
3 332 46 216
3 332 41 268
3 333 39 280
3 333 95 286
3 334 69 203
3 334 115 308
3 335 117 312
3 335 97 347
3 336 104 349
3 336 92 348
3 337 57 368
3 337 98 344
3 338 18 218
3 338 41 216
3 339 28 185
3 339 52 221
3 340 26 194
3 340 4 227
3 341 120 314
3 341 85 374
3 342 79 255
3 342 72 320
3 343 83 282
3 343 79 342
3 344 98 302
3 344 83 343
3 345 101 311
3 345 6 165
3 346 109 330
3 346 5 318
3 347 108 335
3 347 97 243
3 348 112 313
3 348 102 336
3 349 88 307
3 349 92 336
3 350 83 302
3 350 82 303
3 351 104 336
3 351 102 314
3 352 10 329
3 352 127 160
3 353 100 263
3 353 118 164
3 354 98 249
3 354 71 376
3 355 105 273
3 355 81 296
3 356 93 373
3 356 43 283
3 357 104 217
3 357 103 237
3 358 129 374
3 358 85 328
3 359 120 341
3 359 78 283
3 360 71 249
3 360 8 316
3 361 101 151
3 361 113 315
3 362 90 206
3 362 35 304
3 363 5 150
3 363 110 204
3 364 111 202
3 364 68 323
3 365 129 358
3 365 107 259
3 366 94 270
3 366 45 212
3 367 75 311
3 367 101 361
3 368 57 213
3 368 73 301
3 369 59 376
3 369 54 222
3 370 112 383
3 370 114 259
3 371 112 348
3 371 92 318
3 372 50 330
3 372 109 326
3 373 33 382
3 373 43 356
3 374 78 341
3 374 85 358
3 375 39 254
3 375 110 150
3 376 54 369
3 376 59 354
3 377 61 260
3 377 119 318
3 378 50 372
3 378 86 312
3 379 56 276
3 379 62 331
3 380 93 284
3 380 128 308
3 381 62 295
3 381 104 351
3 382 76 186
3 382 43 373
3 383 114 370
3 383 112 371
3 384 39 151
3 384 101 345
3 385 37 231
3 385 32 177
